<svg width="48" height="48" viewBox="0 0 48 48" fill="none" xmlns="http://www.w3.org/2000/svg">
<path d="M44 24C44 18.6957 41.8929 13.6086 38.1421 9.85786C34.3914 6.10714 29.3043 4 24 4C21.3736 4 18.7728 4.51731 16.3463 5.52241C13.9198 6.5275 11.715 8.00069 9.85786 9.85786C6.10714 13.6086 4 18.6957 4 24C4 29.3043 6.10714 34.3914 9.85786 38.1421C13.6086 41.8929 18.6957 44 24 44C26.6264 44 29.2272 43.4827 31.6537 42.4776C34.0802 41.4725 36.285 39.9993 38.1421 38.1421C39.9993 36.285 41.4725 34.0802 42.4776 31.6537C43.4827 29.2272 44 26.6264 44 24ZM14.8 17.2L24 26.4L33.2 17.2L36 20L24 32L12 20L14.8 17.2Z" fill="#BFBFBF"/>
</svg>
