<svg width="40" height="40" viewBox="0 0 40 40" fill="none" xmlns="http://www.w3.org/2000/svg">
<path d="M20 8.74228e-07C14.6957 1.10609e-06 9.60859 2.10714 5.85786 5.85787C2.10713 9.60859 -1.10609e-06 14.6957 -8.74228e-07 20C-7.59423e-07 22.6264 0.517314 25.2272 1.52241 27.6537C2.5275 30.0802 4.00069 32.285 5.85786 34.1421C9.60859 37.8929 14.6957 40 20 40C25.3043 40 30.3914 37.8929 34.1421 34.1421C37.8929 30.3914 40 25.3043 40 20C40 17.3736 39.4827 14.7728 38.4776 12.3463C37.4725 9.91982 35.9993 7.71503 34.1421 5.85786C32.285 4.00069 30.0802 2.5275 27.6537 1.52241C25.2272 0.517316 22.6264 7.59423e-07 20 8.74228e-07ZM13.2 29.2L22.4 20L13.2 10.8L16 8L28 20L16 32L13.2 29.2Z" fill="#BFBFBF"/>
</svg>
