<svg width="153" height="24" viewBox="0 0 153 24" fill="none" xmlns="http://www.w3.org/2000/svg">
<path d="M12.5 0L15.1942 8.2918H23.9127L16.8593 13.4164L19.5534 21.7082L12.5 16.5836L5.44658 21.7082L8.14074 13.4164L1.08732 8.2918H9.80583L12.5 0Z" fill="#BFBFBF"/>
<path d="M44.5 0L47.1942 8.2918H55.9127L48.8593 13.4164L51.5534 21.7082L44.5 16.5836L37.4466 21.7082L40.1407 13.4164L33.0873 8.2918H41.8058L44.5 0Z" fill="#BFBFBF"/>
<path d="M76.5 0L79.1942 8.2918H87.9127L80.8593 13.4164L83.5534 21.7082L76.5 16.5836L69.4466 21.7082L72.1407 13.4164L65.0873 8.2918H73.8058L76.5 0Z" fill="#BFBFBF"/>
<path d="M108.5 0L111.194 8.2918H119.913L112.859 13.4164L115.553 21.7082L108.5 16.5836L101.447 21.7082L104.141 13.4164L97.0873 8.2918H105.806L108.5 0Z" fill="#BFBFBF"/>
<path d="M140.5 0L143.194 8.2918H151.913L144.859 13.4164L147.553 21.7082L140.5 16.5836L133.447 21.7082L136.141 13.4164L129.087 8.2918H137.806L140.5 0Z" fill="#BFBFBF"/>
</svg>
